HIERARCHY
ROOT mixamorig:Hips
{
	OFFSET 0.000000 87.162163 2.265141
	CHANNELS 6 Xposition Yposition Zposition Xrotation Yrotation Zrotation
	JOINT mixamorig:Spine
	{
		OFFSET 0.000000 7.848404 3.918341
		CHANNELS 3 Xrotation Yrotation Zrotation
		JOINT mixamorig:Spine1
		{
			OFFSET -0.000000 11.439644 0.688892
			CHANNELS 3 Xrotation Yrotation Zrotation
			JOINT mixamorig:Spine2
			{
				OFFSET 0.000000 13.053993 -1.801730
				CHANNELS 3 Xrotation Yrotation Zrotation
				JOINT mixamorig:Neck
				{
					OFFSET 0.000000 14.136909 -5.258943
					CHANNELS 3 Xrotation Yrotation Zrotation
					JOINT mixamorig:Head
					{
						OFFSET -0.000000 10.430710 -0.827983
						CHANNELS 3 Xrotation Yrotation Zrotation
						JOINT mixamorig:HeadTop_End
						{
							OFFSET 0.000000 21.740402 -0.604783
							CHANNELS 3 Xrotation Yrotation Zrotation
							End Site
							{
								OFFSET 0.000000 25.832031 -0.000000
							}
						}
						JOINT mixamorig:Visor1
						{
							OFFSET -0.003251 25.655350 16.551157
							CHANNELS 3 Xrotation Yrotation Zrotation
							End Site
							{
								OFFSET 0.000000 25.832031 0.000000
							}
						}
						JOINT mixamorig:HairMidA1
						{
							OFFSET -0.001033 31.569519 8.438098
							CHANNELS 3 Xrotation Yrotation Zrotation
							End Site
							{
								OFFSET 0.000000 25.832016 -0.000000
							}
						}
						JOINT mixamorig:HairMidB1
						{
							OFFSET 0.003633 33.293411 -8.388910
							CHANNELS 3 Xrotation Yrotation Zrotation
							End Site
							{
								OFFSET 0.000000 25.832031 0.000000
							}
						}
						JOINT mixamorig:HairMidC1
						{
							OFFSET 0.006163 27.975342 -17.374311
							CHANNELS 3 Xrotation Yrotation Zrotation
							End Site
							{
								OFFSET 0.000000 25.832016 0.000000
							}
						}
						JOINT mixamorig:HairMidD1
						{
							OFFSET 0.007279 17.872238 -21.168732
							CHANNELS 3 Xrotation Yrotation Zrotation
							End Site
							{
								OFFSET 0.000000 25.832031 0.000000
							}
						}
						JOINT mixamorig:HairMidE1
						{
							OFFSET 4.865269 3.498810 -14.368998
							CHANNELS 3 Xrotation Yrotation Zrotation
							End Site
							{
								OFFSET 0.000000 25.832016 0.000000
							}
						}
						JOINT mixamorig:HairMidF1
						{
							OFFSET -4.854524 3.498764 -14.371698
							CHANNELS 3 Xrotation Yrotation Zrotation
							End Site
							{
								OFFSET 0.000000 25.832031 0.000000
							}
						}
						JOINT mixamorig:HairLeftA1
						{
							OFFSET 14.859479 25.730682 2.624092
							CHANNELS 3 Xrotation Yrotation Zrotation
							End Site
							{
								OFFSET 0.000000 25.832016 -0.000000
							}
						}
						JOINT mixamorig:HairLeftB1
						{
							OFFSET 12.159076 29.273544 -8.730730
							CHANNELS 3 Xrotation Yrotation Zrotation
							End Site
							{
								OFFSET 0.000000 25.832031 0.000000
							}
						}
						JOINT mixamorig:HairLeftC1
						{
							OFFSET 15.254454 15.944077 2.910579
							CHANNELS 3 Xrotation Yrotation Zrotation
							End Site
							{
								OFFSET 0.000000 25.832031 -0.000000
							}
						}
						JOINT mixamorig:HairLeftD1
						{
							OFFSET 15.641331 18.421539 -7.552444
							CHANNELS 3 Xrotation Yrotation Zrotation
							End Site
							{
								OFFSET 0.000000 25.832016 0.000000
							}
						}
						JOINT mixamorig:HairLeftE1
						{
							OFFSET 9.271540 17.899170 -18.316099
							CHANNELS 3 Xrotation Yrotation Zrotation
							End Site
							{
								OFFSET 0.000000 25.832016 0.000000
							}
						}
						JOINT mixamorig:HairLeftF1
						{
							OFFSET 10.743909 4.937805 -9.667402
							CHANNELS 3 Xrotation Yrotation Zrotation
							End Site
							{
								OFFSET 0.000000 25.832016 0.000000
							}
						}
						JOINT mixamorig:HairRightA1
						{
							OFFSET -14.858240 25.730515 2.615833
							CHANNELS 3 Xrotation Yrotation Zrotation
							End Site
							{
								OFFSET 0.000000 25.832031 -0.000000
							}
						}
						JOINT mixamorig:HairRightB1
						{
							OFFSET -12.151567 29.273392 -8.737486
							CHANNELS 3 Xrotation Yrotation Zrotation
							End Site
							{
								OFFSET 0.000000 25.832031 0.000000
							}
						}
						JOINT mixamorig:HairRightC1
						{
							OFFSET -15.253256 15.943893 2.902101
							CHANNELS 3 Xrotation Yrotation Zrotation
							End Site
							{
								OFFSET 0.000000 25.832031 -0.000000
							}
						}
						JOINT mixamorig:HairRightD1
						{
							OFFSET -15.634346 18.421341 -7.561136
							CHANNELS 3 Xrotation Yrotation Zrotation
							End Site
							{
								OFFSET 0.000000 25.832031 0.000000
							}
						}
						JOINT mixamorig:HairRightE1
						{
							OFFSET -9.258568 17.899063 -18.321249
							CHANNELS 3 Xrotation Yrotation Zrotation
							End Site
							{
								OFFSET 0.000000 25.832031 0.000000
							}
						}
						JOINT mixamorig:HairRightF1
						{
							OFFSET -10.735586 4.937683 -9.673372
							CHANNELS 3 Xrotation Yrotation Zrotation
							End Site
							{
								OFFSET 0.000000 25.832016 0.000000
							}
						}
					}
				}
				JOINT mixamorig:LeftShoulder
				{
					OFFSET 4.765166 7.323875 -1.972899
					CHANNELS 3 Xrotation Yrotation Zrotation
					JOINT mixamorig:LeftArm
					{
						OFFSET 8.083765 0.939484 -2.176468
						CHANNELS 3 Xrotation Yrotation Zrotation
						JOINT mixamorig:LeftForeArm
						{
							OFFSET 31.292164 0.000000 -0.000001
							CHANNELS 3 Xrotation Yrotation Zrotation
							JOINT mixamorig:LeftHand
							{
								OFFSET 31.723660 0.000000 -0.000001
								CHANNELS 3 Xrotation Yrotation Zrotation
								JOINT mixamorig:LeftHandThumb1
								{
									OFFSET 2.902626 -2.560440 4.416488
									CHANNELS 3 Xrotation Yrotation Zrotation
									JOINT mixamorig:LeftHandThumb2
									{
										OFFSET 2.339828 -1.345810 1.355842
										CHANNELS 3 Xrotation Yrotation Zrotation
										JOINT mixamorig:LeftHandThumb3
										{
											OFFSET 2.219818 -1.276772 1.286309
											CHANNELS 3 Xrotation Yrotation Zrotation
											JOINT mixamorig:LeftHandThumb4
											{
												OFFSET 2.285744 -1.314713 1.324502
												CHANNELS 3 Xrotation Yrotation Zrotation
												End Site
												{
													OFFSET 2.285744 -1.314705 1.324502
												}
											}
										}
									}
								}
								JOINT mixamorig:LeftHandIndex1
								{
									OFFSET 8.585075 -0.644569 3.119858
									CHANNELS 3 Xrotation Yrotation Zrotation
									JOINT mixamorig:LeftHandIndex2
									{
										OFFSET 3.348534 0.000000 0.000030
										CHANNELS 3 Xrotation Yrotation Zrotation
										JOINT mixamorig:LeftHandIndex3
										{
											OFFSET 3.314537 0.000008 0.000047
											CHANNELS 3 Xrotation Yrotation Zrotation
											JOINT mixamorig:LeftHandIndex4
											{
												OFFSET 2.937866 0.000000 0.000000
												CHANNELS 3 Xrotation Yrotation Zrotation
												End Site
												{
													OFFSET 2.937874 0.000000 0.000000
												}
											}
										}
									}
								}
								JOINT mixamorig:LeftHandMiddle1
								{
									OFFSET 8.140663 -0.002594 -0.000072
									CHANNELS 3 Xrotation Yrotation Zrotation
									JOINT mixamorig:LeftHandMiddle2
									{
										OFFSET 4.166290 -0.000015 0.000030
										CHANNELS 3 Xrotation Yrotation Zrotation
										JOINT mixamorig:LeftHandMiddle3
										{
											OFFSET 3.018105 0.000053 0.000032
											CHANNELS 3 Xrotation Yrotation Zrotation
											JOINT mixamorig:LeftHandMiddle4
											{
												OFFSET 4.093719 0.000000 -0.000000
												CHANNELS 3 Xrotation Yrotation Zrotation
												End Site
												{
													OFFSET 4.093719 0.000000 -0.000000
												}
											}
										}
									}
								}
								JOINT mixamorig:LeftHandRing1
								{
									OFFSET 8.587761 -0.034004 -2.884224
									CHANNELS 3 Xrotation Yrotation Zrotation
									JOINT mixamorig:LeftHandRing2
									{
										OFFSET 3.671196 0.000023 0.000002
										CHANNELS 3 Xrotation Yrotation Zrotation
										JOINT mixamorig:LeftHandRing3
										{
											OFFSET 2.728828 0.000015 0.000020
											CHANNELS 3 Xrotation Yrotation Zrotation
											JOINT mixamorig:LeftHandRing4
											{
												OFFSET 3.622383 0.000000 -0.000000
												CHANNELS 3 Xrotation Yrotation Zrotation
												End Site
												{
													OFFSET 3.622383 0.000000 -0.000000
												}
											}
										}
									}
								}
								JOINT mixamorig:LeftHandPinky1
								{
									OFFSET 7.870621 -0.677841 -5.213132
									CHANNELS 3 Xrotation Yrotation Zrotation
									JOINT mixamorig:LeftHandPinky2
									{
										OFFSET 3.068542 0.000000 0.000007
										CHANNELS 3 Xrotation Yrotation Zrotation
										JOINT mixamorig:LeftHandPinky3
										{
											OFFSET 2.395981 0.000023 0.000042
											CHANNELS 3 Xrotation Yrotation Zrotation
											JOINT mixamorig:LeftHandPinky4
											{
												OFFSET 2.849014 0.000000 0.000000
												CHANNELS 3 Xrotation Yrotation Zrotation
												End Site
												{
													OFFSET 2.849014 0.000000 -0.000000
												}
											}
										}
									}
								}
							}
							JOINT mixamorig:Left_Sleeve
							{
								OFFSET 19.653255 0.000000 -0.000001
								CHANNELS 3 Xrotation Yrotation Zrotation
								End Site
								{
									OFFSET 25.688454 0.000000 -0.000001
								}
							}
						}
					}
				}
				JOINT mixamorig:Whistle0
				{
					OFFSET -0.000105 11.453896 -0.009937
					CHANNELS 3 Xrotation Yrotation Zrotation
					JOINT mixamorig:Whistle1
					{
						OFFSET -0.002040 -6.349861 7.479822
						CHANNELS 3 Xrotation Yrotation Zrotation
						JOINT mixamorig:Whistle2
						{
							OFFSET -0.001261 -8.217644 4.717566
							CHANNELS 3 Xrotation Yrotation Zrotation
							End Site
							{
								OFFSET -0.001261 -8.217644 4.717560
							}
						}
					}
				}
				JOINT mixamorig:Right_Breast1
				{
					OFFSET -5.315914 3.102715 3.080552
					CHANNELS 3 Xrotation Yrotation Zrotation
					End Site
					{
						OFFSET 0.000000 10.519180 0.000000
					}
				}
				JOINT mixamorig:Left_Breast1
				{
					OFFSET 5.314172 3.102776 3.083506
					CHANNELS 3 Xrotation Yrotation Zrotation
					End Site
					{
						OFFSET 0.000000 10.519180 0.000000
					}
				}
				JOINT mixamorig:Hood0
				{
					OFFSET 0.001381 14.430473 -5.423190
					CHANNELS 3 Xrotation Yrotation Zrotation
					JOINT mixamorig:Hood1
					{
						OFFSET 0.001672 -5.553818 -5.895096
						CHANNELS 3 Xrotation Yrotation Zrotation
						JOINT mixamorig:Hood2
						{
							OFFSET -0.000161 -8.380455 0.763632
							CHANNELS 3 Xrotation Yrotation Zrotation
							End Site
							{
								OFFSET -0.000161 -8.380463 0.763632
							}
						}
					}
				}
				JOINT mixamorig:RightShoulder
				{
					OFFSET -4.765170 7.323799 -1.972894
					CHANNELS 3 Xrotation Yrotation Zrotation
					JOINT mixamorig:RightArm
					{
						OFFSET -8.083729 0.940002 -2.176473
						CHANNELS 3 Xrotation Yrotation Zrotation
						JOINT mixamorig:RightForeArm
						{
							OFFSET -31.292198 0.000008 -0.000001
							CHANNELS 3 Xrotation Yrotation Zrotation
							JOINT mixamorig:RightHand
							{
								OFFSET -31.723610 -0.000015 0.000001
								CHANNELS 3 Xrotation Yrotation Zrotation
								JOINT mixamorig:RightHandThumb1
								{
									OFFSET -2.902702 -2.560997 4.416483
									CHANNELS 3 Xrotation Yrotation Zrotation
									JOINT mixamorig:RightHandThumb2
									{
										OFFSET -2.339806 -1.346001 1.355854
										CHANNELS 3 Xrotation Yrotation Zrotation
										JOINT mixamorig:RightHandThumb3
										{
											OFFSET -2.219788 -1.275993 1.286288
											CHANNELS 3 Xrotation Yrotation Zrotation
											JOINT mixamorig:RightHandThumb4
											{
												OFFSET -2.285805 -1.315025 1.324511
												CHANNELS 3 Xrotation Yrotation Zrotation
												End Site
												{
													OFFSET -2.285828 -1.314980 1.324511
												}
											}
										}
									}
								}
								JOINT mixamorig:RightHandIndex1
								{
									OFFSET -8.585098 -0.644997 3.119853
									CHANNELS 3 Xrotation Yrotation Zrotation
									JOINT mixamorig:RightHandIndex2
									{
										OFFSET -3.348602 0.000000 0.000030
										CHANNELS 3 Xrotation Yrotation Zrotation
										JOINT mixamorig:RightHandIndex3
										{
											OFFSET -3.314499 0.000000 0.000050
											CHANNELS 3 Xrotation Yrotation Zrotation
											JOINT mixamorig:RightHandIndex4
											{
												OFFSET -2.937897 0.000000 0.000000
												CHANNELS 3 Xrotation Yrotation Zrotation
												End Site
												{
													OFFSET -2.937897 0.000000 0.000000
												}
											}
										}
									}
								}
								JOINT mixamorig:RightHandMiddle1
								{
									OFFSET -8.140701 -0.002998 -0.000071
									CHANNELS 3 Xrotation Yrotation Zrotation
									JOINT mixamorig:RightHandMiddle2
									{
										OFFSET -4.166290 0.000000 0.000030
										CHANNELS 3 Xrotation Yrotation Zrotation
										JOINT mixamorig:RightHandMiddle3
										{
											OFFSET -3.018105 0.000000 0.000032
											CHANNELS 3 Xrotation Yrotation Zrotation
											JOINT mixamorig:RightHandMiddle4
											{
												OFFSET -4.093704 0.000000 0.000000
												CHANNELS 3 Xrotation Yrotation Zrotation
												End Site
												{
													OFFSET -4.093704 0.000000 0.000000
												}
											}
										}
									}
								}
								JOINT mixamorig:RightHandRing1
								{
									OFFSET -8.587799 -0.033997 -2.884227
									CHANNELS 3 Xrotation Yrotation Zrotation
									JOINT mixamorig:RightHandRing2
									{
										OFFSET -3.671211 0.000000 0.000010
										CHANNELS 3 Xrotation Yrotation Zrotation
										JOINT mixamorig:RightHandRing3
										{
											OFFSET -2.728790 0.000000 0.000020
											CHANNELS 3 Xrotation Yrotation Zrotation
											JOINT mixamorig:RightHandRing4
											{
												OFFSET -3.622398 0.000000 0.000000
												CHANNELS 3 Xrotation Yrotation Zrotation
												End Site
												{
													OFFSET -3.622398 0.000000 0.000000
												}
											}
										}
									}
								}
								JOINT mixamorig:RightHandPinky1
								{
									OFFSET -7.870697 -0.678001 -5.213128
									CHANNELS 3 Xrotation Yrotation Zrotation
									JOINT mixamorig:RightHandPinky2
									{
										OFFSET -3.068512 0.000000 0.000000
										CHANNELS 3 Xrotation Yrotation Zrotation
										JOINT mixamorig:RightHandPinky3
										{
											OFFSET -2.395988 0.000000 0.000050
											CHANNELS 3 Xrotation Yrotation Zrotation
											JOINT mixamorig:RightHandPinky4
											{
												OFFSET -2.848999 0.000000 0.000000
												CHANNELS 3 Xrotation Yrotation Zrotation
												End Site
												{
													OFFSET -2.848999 0.000000 0.000000
												}
											}
										}
									}
								}
							}
							JOINT mixamorig:Right_Sleeve
							{
								OFFSET -19.653206 -0.000015 0.000001
								CHANNELS 3 Xrotation Yrotation Zrotation
								End Site
								{
									OFFSET -25.688393 0.000000 0.000000
								}
							}
						}
					}
				}
			}
		}
		JOINT mixamorig:Belly1
		{
			OFFSET 0.212380 1.592979 3.163679
			CHANNELS 3 Xrotation Yrotation Zrotation
			End Site
			{
				OFFSET 0.000000 7.504410 0.000000
			}
		}
	}
	JOINT mixamorig:LeftUpLeg
	{
		OFFSET 11.866977 -9.376381 -2.439418
		CHANNELS 3 Xrotation Yrotation Zrotation
		JOINT mixamorig:LeftLeg
		{
			OFFSET 0.000000 -32.909191 0.854440
			CHANNELS 3 Xrotation Yrotation Zrotation
			JOINT mixamorig:LeftFoot
			{
				OFFSET 0.000001 -31.923828 -3.032456
				CHANNELS 3 Xrotation Yrotation Zrotation
				JOINT mixamorig:LeftToeBase
				{
					OFFSET 0.000006 -12.942684 13.909951
					CHANNELS 3 Xrotation Yrotation Zrotation
					JOINT mixamorig:LeftToe_End
					{
						OFFSET 0.000011 0.111664 5.998963
						CHANNELS 3 Xrotation Yrotation Zrotation
						End Site
						{
							OFFSET -0.000007 0.111664 5.998962
						}
					}
				}
			}
		}
		JOINT mixamorig:Left_Butt1
		{
			OFFSET -6.630216 1.454788 -3.127206
			CHANNELS 3 Xrotation Yrotation Zrotation
			End Site
			{
				OFFSET -0.459490 18.609993 0.756214
			}
		}
		JOINT mixamorig:Left_ShortSleeve
		{
			OFFSET 0.000000 -15.493900 0.402277
			CHANNELS 3 Xrotation Yrotation Zrotation
			End Site
			{
				OFFSET 0.000000 -18.624737 0.483565
			}
		}
	}
	JOINT mixamorig:RightUpLeg
	{
		OFFSET -11.867000 -9.376366 -2.439418
		CHANNELS 3 Xrotation Yrotation Zrotation
		JOINT mixamorig:RightLeg
		{
			OFFSET -0.000001 -32.909199 0.854441
			CHANNELS 3 Xrotation Yrotation Zrotation
			JOINT mixamorig:RightFoot
			{
				OFFSET 0.000001 -31.923798 -3.032454
				CHANNELS 3 Xrotation Yrotation Zrotation
				JOINT mixamorig:RightToeBase
				{
					OFFSET 0.000008 -12.942620 13.910019
					CHANNELS 3 Xrotation Yrotation Zrotation
					JOINT mixamorig:RightToe_End
					{
						OFFSET -0.000007 0.111696 5.998960
						CHANNELS 3 Xrotation Yrotation Zrotation
						End Site
						{
							OFFSET -0.000012 0.111696 5.998960
						}
					}
				}
			}
		}
		JOINT mixamorig:Right_Butt1
		{
			OFFSET 6.630730 1.454857 -3.127160
			CHANNELS 3 Xrotation Yrotation Zrotation
			End Site
			{
				OFFSET 0.459464 18.610138 0.756796
			}
		}
		JOINT mixamorig:Right_ShortSleeve
		{
			OFFSET -0.000001 -15.493950 0.402279
			CHANNELS 3 Xrotation Yrotation Zrotation
			End Site
			{
				OFFSET 0.000000 -18.624908 0.483570
			}
		}
	}
}
MOTION
Frames: 2
Frame Time: 0.016667
2.471418 85.392525 11.891012 0.242255 -3.025546 -7.392338 3.516158 -5.036100 1.160345 2.543577 -0.748498 0.564624 2.532542 -0.736120 0.539147 1.281431 -4.702079 9.075184 -6.383949 -12.901322 2.070124 0.000000 -0.000000 0.000000 0.000000 -0.000000 0.000000 0.000000 -0.000000 0.000000 0.000000 -0.000000 0.000000 0.000000 -0.000000 0.000000 0.000000 -0.000000 0.000000 0.000000 -0.000000 0.000000 0.000000 -0.000000 0.000000 0.000000 -0.000000 -0.000000 0.000000 -0.000000 0.000000 0.000000 -0.000000 0.000000 0.000000 -0.000000 -0.000000 0.000000 -0.000000 0.000000 0.000000 -0.000000 0.000000 0.000000 -0.000000 0.000000 0.000000 -0.000000 0.000000 -0.000000 -0.000000 -0.000000 0.000000 -0.000000 -0.000000 0.000000 -0.000000 0.000000 0.000000 -0.000000 0.000000 3.496949 -24.194629 2.625902 -0.542570 -56.134121 -5.808685 -0.000105 -98.019929 -0.000109 11.892337 -16.893110 -10.133333 -0.110257 -8.364357 8.470019 28.134500 40.639496 -40.336925 -17.033500 48.272273 28.448575 -0.000001 0.000001 0.000001 8.770574 3.391578 -79.268245 5.062526 5.752037 -82.680109 6.421057 5.765287 -96.164036 -0.000003 -0.000000 0.000000 3.299300 7.652474 -74.246335 7.550439 5.529159 -107.597042 4.026119 5.522021 -72.166939 0.000002 -0.000000 0.000000 1.182788 7.400596 -79.708663 6.221844 5.784032 -94.180563 2.885810 5.016161 -59.798894 -0.000000 -0.000000 0.000001 3.783148 16.113683 -84.797536 2.455484 4.740858 -54.733007 4.907772 5.729719 -81.141152 0.000000 0.000002 0.000001 -0.000001 -0.000000 0.000000 0.000009 0.000001 0.000000 -0.000002 -0.000001 -0.000000 -0.000003 -0.000000 -0.000000 0.000001 0.000001 0.000000 0.000001 0.000001 0.000000 0.000003 0.000001 -0.000000 0.000004 -0.000001 -0.000000 0.000002 0.000001 0.000001 -22.774209 7.440342 -10.064434 -21.452063 16.212443 -3.414079 -0.000019 29.909347 -0.000003 -37.620948 17.546015 -28.054811 -0.850905 10.326183 -7.927611 9.324062 -37.036899 6.211735 -13.504985 -32.161404 -28.935099 0.000001 0.000000 0.000003 5.826321 -1.273945 51.396730 4.023050 -4.569928 82.693749 5.100824 -4.580198 96.152548 0.000000 0.000001 -0.000002 2.361530 -6.402112 73.531638 5.997222 -4.392995 107.564599 1.281106 -3.189327 43.753109 -0.000001 -0.000000 -0.000006 1.012587 -7.011915 91.945602 4.306655 -4.597597 86.246998 1.151265 -3.048348 41.367270 -0.000000 -0.000001 0.000001 3.641835 -14.808152 97.866809 1.743366 -3.610647 51.519816 1.857986 -3.697424 53.333115 0.000001 0.000000 -0.000000 0.000000 -0.000005 0.000003 0.000001 -0.000001 0.000000 -20.400377 9.124170 25.960871 34.017894 7.000936 0.130519 -6.762939 1.022483 -4.304151 -4.118689 0.043517 -1.456467 0.000000 0.000004 0.000001 -0.002304 0.187830 -0.004881 -0.000001 0.000001 0.000001 -38.795212 -7.345827 -23.879812 61.630211 -7.721018 -1.417853 20.808323 -14.997128 19.768963 3.856017 -0.000031 -0.000003 0.000002 0.000002 -0.000000 -0.002305 -0.188065 0.004878 0.000003 -0.000000 0.000001 
0.855583 85.546997 12.261775 0.814584 -2.011055 -6.372004 2.558917 -5.191395 -0.579979 1.954505 -0.782985 0.382568 1.941923 -0.775414 0.364030 1.662104 -5.002478 10.592758 -4.294813 -12.579146 1.555275 0.000000 -0.000001 0.000000 0.000000 -0.000001 0.000000 0.000000 -0.000001 0.000000 0.000000 -0.000001 0.000000 0.000000 -0.000001 0.000000 0.000000 -0.000001 0.000000 0.000000 -0.000001 0.000000 0.000000 -0.000001 0.000000 0.000000 -0.000001 -0.000000 0.000000 -0.000001 0.000000 0.000000 -0.000001 0.000000 -0.000000 -0.000001 0.000000 0.000000 -0.000001 0.000000 0.000000 -0.000001 0.000000 0.000000 -0.000001 0.000000 0.000000 -0.000001 0.000000 -0.000000 -0.000001 0.000000 -0.000000 -0.000001 0.000000 0.000000 -0.000001 0.000000 0.000000 -0.000001 0.000000 3.201241 -24.692853 1.415188 4.865953 -55.036541 -0.879788 -0.000105 -98.072173 -0.000105 8.351054 -16.090083 -11.179028 -0.110256 -8.364354 8.470025 28.134500 40.639506 -40.336929 -17.033517 48.272260 28.448595 -0.000003 0.000005 0.000001 8.770577 3.391583 -79.268245 5.062529 5.752028 -82.680109 6.421041 5.765288 -96.164009 -0.000001 -0.000000 -0.000000 3.299303 7.652473 -74.246308 7.550438 5.529159 -107.597056 4.026116 5.522005 -72.166939 0.000002 -0.000000 0.000001 1.182800 7.400600 -79.708642 6.221816 5.784029 -94.180529 2.885811 5.016191 -59.798900 -0.000001 -0.000001 -0.000000 3.783153 16.113695 -84.797536 2.455488 4.740861 -54.733004 4.907782 5.729724 -81.141158 0.000002 0.000000 0.000002 0.000001 -0.000000 0.000000 0.000007 -0.000001 -0.000000 -0.000000 -0.000001 -0.000000 -0.000003 -0.000000 -0.000001 0.000001 -0.000000 0.000000 0.000001 -0.000000 0.000000 0.000002 -0.000001 -0.000000 0.000006 0.000000 0.000000 0.000002 0.000001 0.000001 -22.941972 4.418942 -10.782124 -5.103039 25.301275 -7.448551 -0.000006 10.641844 0.000013 -40.518489 19.541668 -16.257496 -0.850899 10.326193 -7.927591 9.324044 -37.036895 6.211699 -13.504998 -32.161401 -28.935130 -0.000001 0.000003 0.000001 5.826337 -1.273945 51.396736 4.023045 -4.569915 82.693729 5.100831 -4.580217 96.152562 -0.000000 0.000001 0.000004 2.361557 -6.402113 73.531665 5.997210 -4.392974 107.564572 1.281108 -3.189334 43.753099 -0.000001 0.000002 -0.000001 1.012613 -7.011912 91.945596 4.306683 -4.597578 86.247032 1.151252 -3.048328 41.367259 -0.000002 0.000001 -0.000000 3.641852 -14.808144 97.866823 1.743341 -3.610631 51.519837 1.858022 -3.697449 53.333109 0.000001 -0.000001 0.000002 -0.000001 0.000002 -0.000001 0.000000 -0.000000 0.000000 -21.677087 10.465124 24.056661 37.017658 4.930007 0.132054 -7.626092 0.865312 -7.145956 -2.744358 0.002063 -0.318377 -0.000000 0.000001 -0.000000 -0.002299 0.187830 -0.004880 0.000003 0.000001 0.000002 -31.324586 -6.324799 -21.912630 48.056607 -7.186173 -1.222142 24.007210 -11.191179 21.661093 2.291323 0.000001 0.000006 0.000001 -0.000001 0.000001 -0.002307 -0.188062 0.004874 0.000001 0.000002 -0.000002 
